<svg xmlns="http://www.w3.org/2000/svg" viewBox="0 0 256 256" width="256" height="256"><title>Stash C braces</title>
<g fill="none" stroke="#111" stroke-width="18" stroke-linecap="round" stroke-linejoin="round">
<path id="b" d="M58 64 C38 64 38 76 38 96 V112 C38 124 30 128 22 128 C30 128 38 132 38 144 V160 C38 180 38 192 58 192"/>
<path d="M90 64 C70 64 70 76 70 96 V112 C70 124 62 128 54 128 C62 128 70 132 70 144 V160 C70 180 70 192 90 192"/>
<path d="M198 64 C218 64 218 76 218 96 V112 C218 124 226 128 234 128 C226 128 218 132 218 144 V160 C218 180 218 192 198 192"/>
<path d="M166 64 C186 64 186 76 186 96 V112 C186 124 194 128 202 128 C194 128 186 132 186 144 V160 C186 180 186 192 166 192"/>
</g><circle cx="128" cy="128" r="26" fill="#111"/></svg>
